HIERARCHY
ROOT Hips
{
	OFFSET -0.001795 -0.223333 0.028219
	CHANNELS 6 Xposition Yposition Zposition Zrotation Yrotation Xrotation 
	JOINT LeftUpLeg
	{
		OFFSET 0.069520 -0.091406 -0.006815
		CHANNELS 3 Zrotation Yrotation Xrotation
		JOINT LeftLeg
		{
			OFFSET 0.034277 -0.375199 -0.004496
			CHANNELS 3 Zrotation Yrotation Xrotation
			JOINT LeftFoot
			{
				OFFSET -0.013596 -0.397961 -0.043693
				CHANNELS 3 Zrotation Yrotation Xrotation
				JOINT LeftToe
				{
					OFFSET 0.026358 -0.055791 0.119288
					CHANNELS 3 Zrotation Yrotation Xrotation
					End Site
					{
						OFFSET 0.000000 0.000000 0.000000
					}
				}
			}
		}
	}
	JOINT RightUpLeg
	{
		OFFSET -0.067670 -0.090522 -0.004320
		CHANNELS 3 Zrotation Yrotation Xrotation
		JOINT RightLeg
		{
			OFFSET -0.038290 -0.382569 -0.008850
			CHANNELS 3 Zrotation Yrotation Xrotation
			JOINT RightFoot
			{
				OFFSET 0.015774 -0.398415 -0.042312
				CHANNELS 3 Zrotation Yrotation Xrotation
				JOINT RightToe
				{
					OFFSET -0.025372 -0.048144 0.123348
					CHANNELS 3 Zrotation Yrotation Xrotation
					End Site
					{
						OFFSET 0.000000 0.000000 0.000000
					}
				}
			}
		}
	}
	JOINT Spine
	{
		OFFSET -0.002533 0.108963 -0.026696
		CHANNELS 3 Zrotation Yrotation Xrotation
		JOINT Spine1
		{
			OFFSET 0.005487 0.135180 0.001092
			CHANNELS 3 Zrotation Yrotation Xrotation
			JOINT Spine2
			{
				OFFSET 0.001457 0.052922 0.025425
				CHANNELS 3 Zrotation Yrotation Xrotation
				JOINT Neck
				{
					OFFSET -0.002778 0.213870 -0.042857
					CHANNELS 3 Zrotation Yrotation Xrotation
					JOINT Head
					{
						OFFSET 0.005152 0.064970 0.051349
						CHANNELS 3 Zrotation Yrotation Xrotation
						End Site
						{
							OFFSET 0.000000 0.000000 0.000000
						}
					}
				}
				JOINT LeftShoulder
				{
					OFFSET 0.078845 0.121749 -0.034090
					CHANNELS 3 Zrotation Yrotation Xrotation
					JOINT LeftArm
					{
						OFFSET 0.090977 0.030469 -0.008868
						CHANNELS 3 Zrotation Yrotation Xrotation
						JOINT LeftForeArm
						{
							OFFSET 0.259612 -0.012772 -0.027456
							CHANNELS 3 Zrotation Yrotation Xrotation
							JOINT LeftHand
							{
								OFFSET 0.249234 0.008986 -0.001171
								CHANNELS 3 Zrotation Yrotation Xrotation
								End Site
								{
									OFFSET 0.000000 0.000000 0.000000
								}
							}
						}
					}
				}
				JOINT RightShoulder
				{
					OFFSET -0.081759 0.118833 -0.038615
					CHANNELS 3 Zrotation Yrotation Xrotation
					JOINT RightArm
					{
						OFFSET -0.096012 0.032551 -0.009143
						CHANNELS 3 Zrotation Yrotation Xrotation
						JOINT RightForeArm
						{
							OFFSET -0.253742 -0.013329 -0.021401
							CHANNELS 3 Zrotation Yrotation Xrotation
							JOINT RightHand
							{
								OFFSET -0.255298 0.007772 -0.005559
								CHANNELS 3 Zrotation Yrotation Xrotation
								End Site
								{
									OFFSET 0.000000 0.000000 0.000000
								}
							}
						}
					}
				}
			}
		}
	}
}
MOTION
Frames: 12
Frame Time: 0.050000
0.000000 0.943409 0.000000 -0.686765 -5.440881 9.005260 7.207786 -0.345723 -6.856128 -0.067575 0.145685 -4.114312 1.484671 5.808365 9.667775 0.000000 0.000000 0.000000 -3.037540 0.710292 -7.349922 -1.400946 -0.078050 -4.063243 -0.064025 -5.138225 10.139133 0.000000 0.000000 0.000000 5.513675 0.354144 -5.930328 -3.059653 1.309907 -6.822142 -2.599511 6.145559 6.242938 6.612389 -2.997789 -13.063939 0.000000 0.000000 0.000000 -14.869392 3.576228 -3.756050 -55.824126 -6.165205 -3.886432 -8.052054 -16.528800 1.685392 0.000000 0.000000 0.000000 12.898475 -9.643618 -5.248655 63.502805 2.840876 -4.449962 8.023811 18.446709 1.896181 0.000000 0.000000 0.000000 
0.000105 0.942558 0.000550 -0.906343 -6.188241 9.740983 7.617772 -0.315854 -6.302781 -0.286808 0.208721 -5.400536 1.711077 6.183525 9.959578 0.000000 0.000000 0.000000 -2.903470 0.801965 -8.379162 -1.703502 -0.040823 -3.626069 0.702181 -4.123818 11.081522 0.000000 0.000000 0.000000 6.269147 0.411568 -6.414614 -3.451619 1.450139 -6.918972 -3.179046 7.130946 5.284734 7.144137 -3.231173 -13.239626 0.000000 0.000000 0.000000 -15.786028 4.237746 -4.395478 -54.743757 -6.183276 -3.680387 -8.989935 -16.685315 1.804907 0.000000 0.000000 0.000000 13.088371 -11.195463 -5.959033 63.916227 1.497836 -5.031772 8.774334 19.202464 2.121013 0.000000 0.000000 0.000000 
0.000137 0.942511 0.000876 -0.566371 -5.901174 9.242564 7.115287 -0.334270 -6.410315 0.060316 0.126727 -3.881678 1.190067 4.960657 8.509384 0.000000 0.000000 0.000000 -2.738429 0.790888 -8.285983 -2.170959 0.010575 -3.233358 -0.206425 -5.690939 10.657560 0.000000 0.000000 0.000000 5.965118 0.371816 -6.025392 -3.166806 1.327007 -7.812468 -3.571983 6.933103 5.616638 7.240734 -3.514394 -12.037849 0.000000 0.000000 0.000000 -15.325583 3.591296 -3.984046 -54.756425 -5.608736 -3.999275 -8.970585 -16.642267 1.801315 0.000000 0.000000 0.000000 14.242222 -10.193632 -5.634161 62.819433 1.367828 -5.134163 8.685010 19.155997 2.104448 0.000000 0.000000 0.000000 
0.000104 0.942255 0.001180 -0.561974 -5.773246 9.749047 7.888030 -0.319116 -6.603446 -0.872617 0.226761 -4.652879 0.734565 4.385829 9.380101 0.000000 0.000000 0.000000 -2.854878 0.834126 -8.797379 -1.969103 -0.017058 -3.502983 -0.364008 -6.275376 11.453702 0.000000 0.000000 0.000000 5.851328 0.390031 -6.335482 -3.321919 1.400609 -7.145074 -3.326337 6.390091 3.930006 7.399239 -3.823223 -10.851536 0.000000 0.000000 0.000000 -15.189754 4.628126 -4.410788 -55.319934 -6.088339 -3.663265 -8.479037 -16.249599 1.688728 0.000000 0.000000 0.000000 13.147064 -10.750960 -5.825531 63.076048 0.718087 -5.300891 10.030183 19.593379 2.337094 0.000000 0.000000 0.000000 
0.000029 0.942463 0.001419 -0.413457 -5.389549 9.524302 7.428882 -0.341937 -6.647287 -0.378927 0.181159 -4.429451 0.543807 4.067733 9.286095 0.000000 0.000000 0.000000 -2.769933 0.813254 -8.569239 -2.339442 -0.004299 -3.704384 -0.633021 -6.705160 11.358785 0.000000 0.000000 0.000000 5.583921 0.371623 -6.190985 -3.006903 1.286750 -6.845632 -3.473587 6.206550 3.586889 7.116436 -3.575805 -11.083927 0.000000 0.000000 0.000000 -15.214798 4.465977 -4.362709 -55.248308 -6.537299 -3.418496 -8.834242 -16.199085 1.726233 0.000000 0.000000 0.000000 12.811254 -10.746433 -5.759487 63.321617 0.842486 -5.198816 10.151201 19.534958 2.348802 0.000000 0.000000 0.000000 
-0.000064 0.942635 0.001652 -0.322531 -5.192012 9.645709 7.478501 -0.344600 -6.578447 -0.522267 0.199226 -4.650516 0.381840 3.819659 9.348578 0.000000 0.000000 0.000000 -2.820974 0.806855 -8.502133 -2.499649 -0.017136 -4.099061 -0.671319 -6.922047 11.852620 0.000000 0.000000 0.000000 5.375198 0.374172 -6.296298 -2.906199 1.247783 -6.959984 -3.515601 6.205888 3.274701 7.337426 -3.780110 -10.670781 0.000000 0.000000 0.000000 -15.633317 4.896444 -4.684556 -54.953671 -6.709040 -3.279978 -8.686636 -15.967165 1.674606 0.000000 0.000000 0.000000 12.699665 -10.779159 -5.745274 63.464303 0.760333 -5.202622 10.236950 19.375251 2.340764 0.000000 0.000000 0.000000 
-0.000153 0.942616 0.001814 -0.283152 -5.061343 9.550963 7.307699 -0.354817 -6.694392 -0.311228 0.173389 -4.360554 0.306884 3.771988 9.593720 0.000000 0.000000 0.000000 -2.722966 0.796776 -8.377105 -2.744623 -0.015009 -4.308292 -0.445545 -6.513732 11.954604 0.000000 0.000000 0.000000 5.330758 0.364756 -6.205642 -2.983139 1.281274 -6.911084 -3.556807 6.127015 3.067802 7.534587 -3.823642 -11.121145 0.000000 0.000000 0.000000 -15.607516 4.810624 -4.644209 -54.935452 -6.739318 -3.245567 -8.635543 -15.758993 1.643848 0.000000 0.000000 0.000000 12.725969 -10.773033 -5.747282 63.651965 0.860278 -5.141702 10.093878 19.181328 2.289966 0.000000 0.000000 0.000000 
-0.000180 0.942735 0.001912 -0.321655 -4.820104 9.672587 7.158893 -0.373762 -6.967503 -0.099383 0.149278 -4.144282 0.017904 3.170827 9.188955 0.000000 0.000000 0.000000 -2.692883 0.792694 -8.324702 -2.827156 -0.021521 -4.501278 -0.490029 -6.544337 11.898813 0.000000 0.000000 0.000000 5.314137 0.361075 -6.216816 -2.951450 1.271461 -6.936228 -3.712061 6.178308 2.770649 7.728768 -3.983644 -10.824093 0.000000 0.000000 0.000000 -15.677912 4.637503 -4.622663 -54.595962 -6.941606 -3.097416 -8.603539 -15.222219 1.575430 0.000000 0.000000 0.000000 13.002208 -10.748796 -5.754806 63.462301 1.071763 -4.973241 10.383601 18.500000 2.243301 0.000000 0.000000 0.000000 
-0.000206 0.942857 0.001955 -0.357217 -4.923802 9.663293 7.023008 -0.378828 -7.025171 -0.025521 0.139886 -4.044676 0.137879 3.354307 9.127147 0.000000 0.000000 0.000000 -2.662363 0.783121 -8.196698 -2.783890 -0.048867 -4.907214 -0.249922 -6.133926 11.986464 0.000000 0.000000 0.000000 5.323730 0.357755 -6.171127 -2.944711 1.265258 -7.083837 -3.649639 6.336967 2.911443 7.863500 -4.057530 -10.900999 0.000000 0.000000 0.000000 -15.592566 4.571948 -4.584612 -54.604307 -7.198188 -2.997224 -8.438657 -14.538605 1.483645 0.000000 0.000000 0.000000 13.163224 -10.691564 -5.739680 63.247279 1.395559 -4.801309 10.181376 18.217966 2.178427 0.000000 0.000000 0.000000 
-0.000224 0.942979 0.001947 -0.359824 -4.965077 9.729313 6.996848 -0.385389 -7.219170 -0.041973 0.139858 -4.007391 0.156341 3.406616 9.210468 0.000000 0.000000 0.000000 -2.680788 0.792499 -8.306549 -2.751516 -0.061465 -5.085461 -0.128973 -5.906086 11.975073 0.000000 0.000000 0.000000 5.394723 0.371109 -6.308575 -3.011887 1.292966 -6.944198 -3.673596 6.460397 2.825138 8.089796 -4.190578 -10.943210 0.000000 0.000000 0.000000 -15.327227 4.387833 -4.462662 -54.599982 -7.546722 -2.835715 -8.420365 -13.787512 1.401851 0.000000 0.000000 0.000000 13.053622 -10.577801 -5.653326 63.224398 1.816109 -4.554038 10.106957 17.658800 2.092151 0.000000 0.000000 0.000000 
-0.000253 0.943168 0.001873 -0.376345 -5.176541 9.771077 7.029639 -0.379425 -7.151784 -0.030617 0.143191 -4.125399 0.100151 3.302995 9.272386 0.000000 0.000000 0.000000 -2.626529 0.800683 -8.382911 -2.716705 -0.063660 -5.081698 0.035368 -5.609772 11.934690 0.000000 0.000000 0.000000 5.511276 0.369739 -6.262874 -3.066717 1.311477 -6.936642 -3.625850 6.560698 2.835840 8.225850 -4.290328 -10.911152 0.000000 0.000000 0.000000 -15.315963 4.260051 -4.393841 -54.515038 -7.496682 -2.851777 -8.338442 -13.582916 1.372557 0.000000 0.000000 0.000000 13.043126 -10.467527 -5.602003 63.070395 2.035055 -4.433047 10.427257 17.421095 2.102112 0.000000 0.000000 0.000000 
-0.000242 0.943227 0.001697 -0.424354 -5.273299 9.972193 7.175926 -0.377267 -7.255657 -0.172985 0.162157 -4.343933 0.020895 3.203735 9.452969 0.000000 0.000000 0.000000 -2.584662 0.814029 -8.516423 -2.728898 -0.070537 -5.197998 0.177165 -5.363515 11.959071 0.000000 0.000000 0.000000 5.642682 0.381877 -6.390249 -3.046116 1.302585 -6.838513 -3.596168 6.618561 2.686855 8.358101 -4.325223 -11.160765 0.000000 0.000000 0.000000 -15.230040 4.325641 -4.410707 -54.545586 -7.312117 -2.924048 -8.477669 -13.467014 1.375351 0.000000 0.000000 0.000000 12.799088 -10.470515 -5.568335 63.140234 1.989686 -4.433762 10.665886 17.653331 2.166885 0.000000 0.000000 0.000000 
